# xmcd
#
# Track frame offsets:
#  182
#  13385
#  28927
#  42205
#  58945
#  77792
#  92585
#  105100
#  125160
#  141845
#  152562
#
# Disc length: 2178 seconds
#
# Revision: 0
# Processed by: cddbd v1.5.1PL2 Copyright (c) Steve Scherf et al.
# Submitted via: Collectorz.com_Music_Collector 6.10
#
DISCID=8f08800b
DTITLE=Alison Krauss - Too Late To Cry
DYEAR=1900
DGENRE=Bluegrass
TTITLE0=Too Late to Cry
TTITLE1=Foolish Heart
TTITLE2=Song For Life
TTITLE3=Dusty Miller
TTITLE4=If I Give My Heart
TTITLE5=In Your Eyes
TTITLE6=Don't Follow Me
TTITLE7=Gentle River
TTITLE8=On the Borderline
TTITLE9=Forgotten Pictures
TTITLE10=Sleep On
EXTD=
EXTT0=
EXTT1=
EXTT2=
EXTT3=
EXTT4=
EXTT5=
EXTT6=
EXTT7=
EXTT8=
EXTT9=
EXTT10=
PLAYORDER=
